# xmcd
#
# Track frame offsets:
#	150
#	13512
#	25621
#	37745
#	50530
#	62432
#	74150
#	86430
#	97862
#	109580
#
# Disc length: 1629 seconds
#
# Revision: 0
# Processed by: cddbd v1.5.1PL0 Copyright (c) Steve Scherf et al.
# Submitted via: dBpowerAMP V4.0
#
DISCID=6e065b0a
DTITLE=Ernest Tubb - Family Bible
DYEAR=1900
DGENRE=Country
TTITLE0=Family Bible
TTITLE1=I Saw The Light
TTITLE2=Stand By Me
TTITLE3=What A Friend We Have In Jesus
TTITLE4=The Wings Of A Dove
TTITLE5=The Old Rugged Cross
TTITLE6=When It's Prayer Meeting Time
TTITLE7=When Jesus Calls
TTITLE8=Follow Me
TTITLE9=May The Good Lord Bless And Keep You
EXTD=
EXTT0=
EXTT1=
EXTT2=
EXTT3=
EXTT4=
EXTT5=
EXTT6=
EXTT7=
EXTT8=
EXTT9=
PLAYORDER=
